<?xml version="1.0" encoding="UTF-8"?>
<svg width="16px" height="12px" viewBox="8 4 16 12" version="1.1" xmlns="http://www.w3.org/2000/svg" xmlns:xlink="http://www.w3.org/1999/xlink">
    <defs>
        <linearGradient x1="100%" y1="23.553719%" x2="-31.6754184%" y2="94.5948704%" id="linearGradient-1">
            <stop stop-color="#7764F9" offset="0%"></stop>
            <stop stop-color="#769FFC" offset="100%"></stop>
        </linearGradient>
        <path d="M24.7272727,237.636364 C24.3258182,237.636364 24,237.311273 24,236.909091 L24,226.727273 C24,226.325091 24.3258182,226 24.7272727,226 L39.2727273,226 C39.6741818,226 40,226.325091 40,226.727273 L40,236.909091 C40,237.311273 39.6741818,237.636364 39.2727273,237.636364 L24.7272727,237.636364 Z M38.5454545,236.181818 L38.5454545,230.594909 L32,233.280727 L25.4545455,230.594909 L25.4545455,236.181818 L38.5454545,236.181818 Z M25.4545455,227.454545 L25.4545455,228.992727 L32,231.679273 L38.5454545,228.992727 L38.5454545,227.454545 L25.4545455,227.454545 Z" id="path-2"></path>
        <filter x="-87.5%" y="-85.9%" width="275.0%" height="340.6%" filterUnits="objectBoundingBox" id="filter-3">
            <feOffset dx="0" dy="4" in="SourceAlpha" result="shadowOffsetOuter1"></feOffset>
            <feGaussianBlur stdDeviation="4" in="shadowOffsetOuter1" result="shadowBlurOuter1"></feGaussianBlur>
            <feColorMatrix values="0 0 0 0 0.11372549   0 0 0 0 0.133333333   0 0 0 0 0.156862745  0 0 0 0.1 0" type="matrix" in="shadowBlurOuter1" result="shadowMatrixOuter1"></feColorMatrix>
            <feMorphology radius="1" operator="erode" in="SourceAlpha" result="shadowSpreadOuter2"></feMorphology>
            <feOffset dx="0" dy="4" in="shadowSpreadOuter2" result="shadowOffsetOuter2"></feOffset>
            <feGaussianBlur stdDeviation="2" in="shadowOffsetOuter2" result="shadowBlurOuter2"></feGaussianBlur>
            <feColorMatrix values="0 0 0 0 0.11372549   0 0 0 0 0.133333333   0 0 0 0 0.156862745  0 0 0 0.0499071241 0" type="matrix" in="shadowBlurOuter2" result="shadowMatrixOuter2"></feColorMatrix>
            <feMerge>
                <feMergeNode in="shadowMatrixOuter1"></feMergeNode>
                <feMergeNode in="shadowMatrixOuter2"></feMergeNode>
            </feMerge>
        </filter>
    </defs>
    <g id="Fuji-ID_Sk_v5" stroke="none" stroke-width="1" fill="none" fill-rule="evenodd">
        <g id="User-Name-Copy-6" transform="translate(-16.000000, -222.000000)" fill-rule="nonzero">
            <g id="Mail">
                <use fill="black" fill-opacity="1" filter="url(#filter-3)" xlink:href="#path-2"></use>
                <use fill="url(#linearGradient-1)" xlink:href="#path-2"></use>
            </g>
        </g>
    </g>
</svg>