<?xml version="1.0" encoding="UTF-8"?>
<svg width="10px" height="15px" viewBox="0 0 10 15" version="1.1" xmlns="http://www.w3.org/2000/svg" xmlns:xlink="http://www.w3.org/1999/xlink">
    <title>mobile-black</title>
    <g id="Page-1" stroke="none" stroke-width="1" fill="none" fill-rule="evenodd">
        <g id="YID_01" transform="translate(-24.000000, -314.000000)" fill="#231F20">
            <path d="M29.7142857,326.272727 C29.7142857,325.895682 29.3942857,325.590909 29,325.590909 C28.6057143,325.590909 28.2857143,325.895682 28.2857143,326.272727 C28.2857143,326.649091 28.6057143,326.954545 29,326.954545 C29.3942857,326.954545 29.7142857,326.649091 29.7142857,326.272727 Z M32.5714286,323.545455 L25.4285714,323.545455 L25.4285714,315.363636 L32.5714286,315.363636 L32.5714286,323.545455 Z M32.5714286,327.636364 L25.4285714,327.636364 L25.4285714,324.909091 L32.5714286,324.909091 L32.5714286,327.636364 Z M24.7142857,314 C24.3192857,314 24,314.304773 24,314.681818 L24,328.318182 C24,328.695227 24.3192857,329 24.7142857,329 L33.2857143,329 C33.68,329 34,328.695227 34,328.318182 L34,314.681818 C34,314.304773 33.68,314 33.2857143,314 L24.7142857,314 Z" id="mobile-black"></path>
        </g>
    </g>
</svg>