<svg xmlns="http://www.w3.org/2000/svg" width="28" height="30" viewBox="0 0 28 30">
    <path fill="#4285F4" d="M20.257 12.656l-6.72 6.61c-.538.535-1.36.522-1.938 0L7.74 15.462c-.535-.53-.535-1.39 0-1.923.534-.528 1.402-.528 1.937 0l2.89 2.846 5.753-5.65c.536-.53 1.402-.53 1.936 0 .537.532.537 1.391 0 1.921m5.859-6.848C23.876 5.652 19.44 4.774 14.877.67c-.249-.225-.562-.337-.876-.337-.315 0-.63.112-.878.337C8.56 4.774 4.125 5.652 1.886 5.808c-.71.05-1.22.654-1.22 1.365 0 16.174 10.832 21.626 12.872 22.407.151.057.31.087.47.087.153 0 .307-.028.454-.082 2.04-.755 12.871-6.174 12.871-22.414.002-.71-.51-1.312-1.217-1.363"/>
</svg>
