<?xml version="1.0" encoding="UTF-8"?>
<svg width="20px" height="21px" viewBox="0 0 20 21" version="1.1" xmlns="http://www.w3.org/2000/svg" xmlns:xlink="http://www.w3.org/1999/xlink">
    <g id="Page-1" stroke="none" stroke-width="1" fill="none" fill-rule="evenodd">
        <g id="Outlook-Copy" fill="#0072C6" fill-rule="nonzero">
            <path d="M11.9616368,4.52547441 L11.9616368,8.20192 L13.2429533,9.01090757 C13.2767463,9.02079045 13.3499642,9.02149676 13.3837572,9.01090757 L18.898345,5.28292955 C18.898345,4.84172775 18.4879012,4.52547441 18.2562796,4.52547441 L11.9616368,4.52547441 Z" id="path3"></path>
            <path d="M11.9616368,9.57352793 L13.131014,10.3789858 C13.2957547,10.5004045 13.4942884,10.3789858 13.4942884,10.3789858 C13.2964588,10.5004045 18.8990494,6.76889694 18.8990494,6.76889694 L18.8990494,13.5259894 C18.8990494,14.2615609 18.4294681,14.570049 17.9014535,14.570049 L11.9609328,14.570049 L11.9609328,9.57352793 L11.9616368,9.57352793 Z" id="path5"></path>
            <g id="g23" transform="translate(0.048915, 0.143106)">
                <path d="M5.85815027,7.73550137 C5.45967496,7.73550137 5.14216195,7.92327682 4.90772329,8.29812179 C4.67328464,8.67296677 4.5557133,9.16923045 4.5557133,9.78691285 C4.5557133,10.4137722 4.67328464,10.90933 4.90772329,11.2735861 C5.14216195,11.6385482 5.44981868,11.8199703 5.82998947,11.8199703 C6.2221286,11.8199703 6.53330543,11.6427837 6.76281595,11.2884105 C6.99232646,10.9340373 7.10778574,10.4420092 7.10778574,9.81303199 C7.10778574,9.15722977 6.99655058,8.64684763 6.77337625,8.28188557 C6.55020191,7.91762944 6.24536126,7.73550137 5.85815027,7.73550137 Z" id="path25"></path>
                <path d="M0.310472812,2.51520272 L0.310472812,16.8983785 L11.2227825,19.1926274 L11.2227825,0.397434502 L0.310472812,2.51520272 Z M7.61256807,12.1383415 C7.15143498,12.7468469 6.55020191,13.0518055 5.80816485,13.0518055 C5.08513633,13.0518055 4.49657563,12.7567298 4.0410747,12.1672843 C3.58627779,11.5771329 3.35817531,10.809089 3.35817531,9.86174066 C3.35817531,8.86144814 3.58909387,8.05246068 4.051635,7.43477828 C4.51417612,6.81709589 5.12667351,6.50790173 5.88912715,6.50790173 C6.60933959,6.50790173 7.19226814,6.80297743 7.63650475,7.39454069 C8.08144537,7.98610394 8.30391729,8.76544265 8.30391729,9.73326272 C8.30461971,10.7279079 8.07370115,11.5298361 7.61256807,12.1383415 Z" id="path27"></path>
            </g>
        </g>
    </g>
</svg>