<?xml version="1.0" encoding="UTF-8"?>
<svg width="24px" height="10px" viewBox="0 0 24 10" version="1.1" xmlns="http://www.w3.org/2000/svg" xmlns:xlink="http://www.w3.org/1999/xlink">
    <!-- Generator: Sketch 60 (88103) - https://sketch.com -->
    <title>AOL_Logo_White</title>
    <desc>Created with Sketch.</desc>
    <defs>
        <polygon id="path-1" points="0 0.017968254 23.9993968 0.017968254 23.9993968 9.58730159 0 9.58730159"></polygon>
    </defs>
    <g id="Dark-theme-Fuji-Yahoo-Properties-final-spec" stroke="none" stroke-width="1" fill="none" fill-rule="evenodd">
        <g id="User-Name-Copy-62" transform="translate(-244.000000, -519.000000)">
            <g id="AOL_Logo_White" transform="translate(244.000000, 519.000000)">
                <polygon id="Fill-1" fill="#FFFFFE" points="18.1047619 9.37209524 20.2027937 9.37209524 20.2027937 0.017968254 18.1047619 0.017968254"></polygon>
                <g id="Group-6">
                    <mask id="mask-2" fill="white">
                        <use xlink:href="#path-1"></use>
                    </mask>
                    <g id="Clip-3"></g>
                    <path d="M22.7106032,7.00298413 C21.9999683,7.00298413 21.4234286,7.57955556 21.4234286,8.29098413 C21.4234286,9.0027619 21.9999683,9.57961905 22.7106032,9.57961905 C23.4226984,9.57961905 23.9993968,9.0027619 23.9993968,8.29098413 C23.9993968,7.57955556 23.4226984,7.00298413 22.7106032,7.00298413" id="Fill-2" fill="#FFFFFE" mask="url(#mask-2)"></path>
                    <path d="M3.71612698,6.12314286 L4.67768254,2.92504762 L4.71520635,2.92504762 L5.6768254,6.12314286 L3.71612698,6.12314286 Z M3.7548254,0.017968254 L0,9.37209524 L2.56714286,9.37209524 L3.05892063,8.01904762 L6.30847619,8.01904762 L6.76352381,9.37209524 L9.35463492,9.37209524 L5.6375873,0.017968254 L3.7548254,0.017968254 L3.7548254,0.017968254 Z" id="Fill-4" fill="#FFFFFE" mask="url(#mask-2)"></path>
                    <path d="M13.2245714,7.62777778 C12.3157778,7.62777778 11.5436508,6.8811746 11.5436508,5.85825397 C11.5436508,4.83326984 12.3157778,4.08707937 13.2245714,4.08707937 C14.1351746,4.08707937 14.906127,4.83326984 14.906127,5.85825397 C14.906127,6.8811746 14.1351746,7.62777778 13.2245714,7.62777778 Z M13.2245714,2.12850794 C10.6720635,2.12850794 9.44539683,4.138 9.44539683,5.85825397 C9.44539683,7.57660317 10.6720635,9.58733333 13.2245714,9.58733333 C15.7783175,9.58733333 17.0051429,7.57660317 17.0051429,5.85825397 C17.0051429,4.138 15.7783175,2.12850794 13.2245714,2.12850794 L13.2245714,2.12850794 Z" id="Fill-5" fill="#FFFFFE" mask="url(#mask-2)"></path>
                </g>
            </g>
        </g>
    </g>
</svg>