<?xml version="1.0" encoding="UTF-8"?>
<svg width="16px" height="13px" viewBox="0 0 16 13" version="1.1" xmlns="http://www.w3.org/2000/svg" xmlns:xlink="http://www.w3.org/1999/xlink">
    <g id="Fuji-ID_Sk_v5" stroke="none" stroke-width="1" fill="none" fill-rule="evenodd">
        <g id="User-Name-Copy-4" transform="translate(-24.000000, -257.000000)" fill="#767d84">
            <path d="M36.3636364,265.666667 L35.6363636,265.666667 C35.2341818,265.666667 34.9090909,265.9895 34.9090909,266.388889 C34.9090909,266.788278 35.2341818,267.111111 35.6363636,267.111111 L36.3636364,267.111111 C36.7658182,267.111111 37.0909091,266.788278 37.0909091,266.388889 C37.0909091,265.9895 36.7658182,265.666667 36.3636364,265.666667 L36.3636364,265.666667 Z M34.9090909,264.222222 L36.3636364,264.222222 C36.7658182,264.222222 37.0909091,263.899389 37.0909091,263.5 C37.0909091,263.100611 36.7658182,262.777778 36.3636364,262.777778 L34.9090909,262.777778 C34.5069091,262.777778 34.1818182,263.100611 34.1818182,263.5 C34.1818182,263.899389 34.5069091,264.222222 34.9090909,264.222222 L34.9090909,264.222222 Z M34.9090909,261.333333 L36.3636364,261.333333 C36.7658182,261.333333 37.0909091,261.0105 37.0909091,260.611111 C37.0909091,260.211722 36.7658182,259.888889 36.3636364,259.888889 L34.9090909,259.888889 C34.5069091,259.888889 34.1818182,260.211722 34.1818182,260.611111 C34.1818182,261.0105 34.5069091,261.333333 34.9090909,261.333333 L34.9090909,261.333333 Z M38.5454545,268.555556 L34.9090909,268.555556 C34.4378182,266.907444 32.8618182,265.666667 30.144,265.666667 C27.4261818,265.666667 25.9258182,266.907444 25.4545455,268.555556 L25.4545455,258.444444 L38.5454545,258.444444 L38.5454545,268.555556 Z M27.1316364,268.555556 C27.632,267.715611 28.3992727,267.111111 30.144,267.111111 C31.8887273,267.111111 32.7309091,267.715611 33.2312727,268.555556 L27.1316364,268.555556 Z M39.2727273,257 L24.7272727,257 C24.3250909,257 24,257.322833 24,257.722222 L24,269.277778 C24,269.676444 24.3250909,270 24.7272727,270 L39.2727273,270 C39.6741818,270 40,269.676444 40,269.277778 L40,257.722222 C40,257.322833 39.6741818,257 39.2727273,257 L39.2727273,257 Z M30.1818182,261.333333 C30.784,261.333333 31.2727273,261.818667 31.2727273,262.416667 C31.2727273,263.014667 30.784,263.5 30.1818182,263.5 C29.5796364,263.5 29.0909091,263.014667 29.0909091,262.416667 C29.0909091,261.818667 29.5796364,261.333333 30.1818182,261.333333 L30.1818182,261.333333 Z M30.1818182,264.944444 C31.5876364,264.944444 32.7272727,263.812722 32.7272727,262.416667 C32.7272727,261.019889 31.5876364,259.888889 30.1818182,259.888889 C28.7752727,259.888889 27.6363636,261.019889 27.6363636,262.416667 C27.6363636,263.812722 28.7752727,264.944444 30.1818182,264.944444 L30.1818182,264.944444 Z" id="Contact-Card"></path>
        </g>
    </g>
</svg>
