<?xml version="1.0" encoding="UTF-8"?>
<svg width="43px" height="17px" viewBox="0 0 43 17" version="1.1" xmlns="http://www.w3.org/2000/svg" xmlns:xlink="http://www.w3.org/1999/xlink">
    <!-- Generator: Sketch 55.2 (78181) - https://sketchapp.com -->
    <title>AOL</title>
    <desc>Created with Sketch.</desc>
    <g id="Account-Access" stroke="none" stroke-width="1" fill="none" fill-rule="evenodd">
        <g id="User-Name_Social" transform="translate(-234.000000, -516.000000)" fill="#000000" fill-rule="nonzero">
            <g id="AOL" transform="translate(234.000000, 516.000000)">
                <path d="M42.6349868,14.6970478 C42.6349868,13.4331651 41.6104589,12.4089113 40.3454786,12.4089113 C39.0830221,12.4089113 38.0587687,13.4331651 38.0587687,14.6970478 C38.0587687,15.9614794 39.0830221,16.9863367 40.3454786,16.9863367 C41.6104589,16.9863367 42.6349868,15.9614794 42.6349868,14.6970478 Z M23.4934705,13.5188213 C21.8790059,13.5188213 20.5073533,12.1924934 20.5073533,10.3752195 C20.5073533,8.55437883 21.8790059,7.22876423 23.4934705,7.22876423 C25.1111717,7.22876423 26.4807946,8.55437883 26.4807946,10.3752195 C26.4807946,12.1924934 25.1111717,13.5188213 23.4934705,13.5188213 Z M23.4934705,3.74939641 C18.958955,3.74939641 16.7797412,7.31924936 16.7797412,10.3752195 C16.7797412,13.4278973 18.958955,17 23.4934705,17 C28.0301797,17 30.2097233,13.4278973 30.2097233,10.3752195 C30.2097233,7.31924936 28.0301797,3.74939641 23.4934705,3.74939641 Z M8.3099213,5.16445346 L8.37659105,5.16445346 L10.0848879,10.8458077 L6.6017341,10.8458077 L8.3099213,5.16445346 Z M11.207035,14.2139486 L12.0154189,16.617702 L16.6185251,16.617702 L10.0151998,0 L6.6704345,0 L0,16.617702 L4.56052455,16.617702 L5.43415285,14.2139486 L11.207035,14.2139486 Z M32.1631364,16.617702 L35.8903099,16.617702 L35.8903099,0 L32.1631364,0 L32.1631364,16.617702 Z"></path>
            </g>
        </g>
    </g>
</svg>