<svg width="23" height="23" viewBox="0 0 23 23" fill="none" xmlns="http://www.w3.org/2000/svg">
<path fill-rule="evenodd" clip-rule="evenodd" d="M19.1427 11.1659C19.1613 11.681 19.3641 12.1723 19.7142 12.55L21.238 14.0773C21.4174 14.2535 21.5201 14.4937 21.5237 14.7454V18.1818C21.5237 18.709 21.0973 19.1363 20.5713 19.1363H15.2856C15.012 20.7411 13.6242 21.9146 11.9999 21.9146C10.3756 21.9146 8.98775 20.7411 8.71417 19.1363H3.42846C2.90247 19.1363 2.47607 18.709 2.47607 18.1818V14.7454C2.47965 14.4937 2.58235 14.2535 2.76179 14.0773L4.52369 12.3113C4.72968 12.0906 4.84821 11.8021 4.85703 11.5V9.11362C4.85703 5.15226 7.42845 1.95453 11.9999 1.95453C16.5713 1.95453 19.1427 5.24771 19.1427 9.11362V11.1659ZM4.38084 17.2273H19.6189V15.175L18.3332 13.8863C17.6462 13.1457 17.2562 12.177 17.238 11.1659V9.11362C17.238 6.67953 15.857 3.86362 11.9999 3.86362C8.14274 3.86362 6.76179 6.58407 6.76179 9.11362V11.5C6.75536 12.3076 6.43006 13.0798 5.85703 13.6477L4.38084 15.175V17.2273Z" fill="black"/>
<path d="M19.7142 12.55L19.3474 12.8899L19.3537 12.8966L19.3602 12.9031L19.7142 12.55ZM19.1427 11.1659H18.6427V11.1749L18.6431 11.1839L19.1427 11.1659ZM21.238 14.0773L20.884 14.4304L20.8876 14.434L21.238 14.0773ZM21.5237 14.7454H22.0237L22.0236 14.7383L21.5237 14.7454ZM15.2856 19.1363V18.6363H14.8636L14.7927 19.0523L15.2856 19.1363ZM8.71417 19.1363L9.20706 19.0523L9.13614 18.6363H8.71417V19.1363ZM2.47607 14.7454L1.97607 14.7383V14.7454H2.47607ZM2.76179 14.0773L3.11216 14.434L3.11574 14.4304L2.76179 14.0773ZM4.52369 12.3113L4.87765 12.6645L4.88355 12.6586L4.88925 12.6525L4.52369 12.3113ZM4.85703 11.5L5.35681 11.5146L5.35703 11.5073V11.5H4.85703ZM19.6189 17.2273V17.7273H20.1189V17.2273H19.6189ZM4.38084 17.2273H3.88084V17.7273H4.38084V17.2273ZM19.6189 15.175H20.1189V14.9682L19.9729 14.8218L19.6189 15.175ZM18.3332 13.8863L17.9666 14.2264L17.9728 14.2331L17.9793 14.2395L18.3332 13.8863ZM17.238 11.1659H16.7379L16.7381 11.1749L17.238 11.1659ZM6.76179 11.5L7.26179 11.504V11.5H6.76179ZM5.85703 13.6477L5.50499 13.2925L5.49751 13.3002L5.85703 13.6477ZM4.38084 15.175L4.02132 14.8275L3.88084 14.9728V15.175H4.38084ZM20.0809 12.2101C19.8124 11.9204 19.6567 11.5434 19.6424 11.1479L18.6431 11.1839C18.666 11.8187 18.9159 12.4242 19.3474 12.8899L20.0809 12.2101ZM21.5919 13.7241L20.0681 12.1968L19.3602 12.9031L20.884 14.4304L21.5919 13.7241ZM22.0236 14.7383C22.0182 14.355 21.8619 13.9892 21.5883 13.7205L20.8876 14.434C20.973 14.5178 21.022 14.6323 21.0237 14.7525L22.0236 14.7383ZM22.0237 18.1818V14.7454H21.0237V18.1818H22.0237ZM20.5713 19.6363C21.3745 19.6363 22.0237 18.9841 22.0237 18.1818H21.0237C21.0237 18.4339 20.8201 18.6363 20.5713 18.6363V19.6363ZM15.2856 19.6363H20.5713V18.6363H15.2856V19.6363ZM11.9999 22.4146C13.8687 22.4146 15.4641 21.0646 15.7785 19.2204L14.7927 19.0523C14.56 20.4176 13.3797 21.4146 11.9999 21.4146V22.4146ZM8.22128 19.2204C8.53568 21.0646 10.131 22.4146 11.9999 22.4146V21.4146C10.6201 21.4146 9.43981 20.4176 9.20706 19.0523L8.22128 19.2204ZM3.42846 19.6363H8.71417V18.6363H3.42846V19.6363ZM1.97607 18.1818C1.97607 18.9841 2.62526 19.6363 3.42846 19.6363V18.6363C3.17968 18.6363 2.97607 18.4339 2.97607 18.1818H1.97607ZM1.97607 14.7454V18.1818H2.97607V14.7454H1.97607ZM2.41143 13.7205C2.1379 13.9892 1.98157 14.355 1.97612 14.7383L2.97602 14.7525C2.97773 14.6323 3.02679 14.5178 3.11214 14.434L2.41143 13.7205ZM4.16974 11.9582L2.40783 13.7241L3.11574 14.4304L4.87765 12.6645L4.16974 11.9582ZM4.35724 11.4854C4.35197 11.6661 4.28107 11.8385 4.15814 11.9702L4.88925 12.6525C5.1783 12.3427 5.34445 11.9381 5.35681 11.5146L4.35724 11.4854ZM4.35703 9.11362V11.5H5.35703V9.11362H4.35703ZM11.9999 1.45453C9.59111 1.45453 7.66815 2.30062 6.34948 3.7065C5.03549 5.10741 4.35703 7.02587 4.35703 9.11362H5.35703C5.35703 7.24001 5.96428 5.57892 7.07885 4.39062C8.18876 3.2073 9.83723 2.45453 11.9999 2.45453V1.45453ZM19.6427 9.11362C19.6427 7.07134 18.963 5.15472 17.6518 3.74397C16.3355 2.3276 14.4132 1.45453 11.9999 1.45453V2.45453C14.158 2.45453 15.8071 3.22805 16.9194 4.42475C18.0368 5.62706 18.6427 7.28999 18.6427 9.11362H19.6427ZM19.6427 11.1659V9.11362H18.6427V11.1659H19.6427ZM19.6189 16.7273H4.38084V17.7273H19.6189V16.7273ZM19.1189 15.175V17.2273H20.1189V15.175H19.1189ZM17.9793 14.2395L19.265 15.5281L19.9729 14.8218L18.6872 13.5332L17.9793 14.2395ZM16.7381 11.1749C16.7585 12.3088 17.1959 13.3955 17.9666 14.2264L18.6998 13.5463C18.0966 12.896 17.7539 12.0451 17.7379 11.1569L16.7381 11.1749ZM16.738 9.11362V11.1659H17.738V9.11362H16.738ZM11.9999 4.36362C13.7933 4.36362 14.9553 5.01131 15.6788 5.89302C16.4158 6.79103 16.738 7.98211 16.738 9.11362H17.738C17.738 7.81104 17.3697 6.37712 16.4519 5.25865C15.5207 4.12388 14.0636 3.36362 11.9999 3.36362V4.36362ZM7.26179 9.11362C7.26179 7.9314 7.58545 6.74287 8.31906 5.85948C9.03969 4.99172 10.2006 4.36362 11.9999 4.36362V3.36362C9.94206 3.36362 8.48388 4.09575 7.54975 5.2206C6.6286 6.32982 6.26179 7.7663 6.26179 9.11362H7.26179ZM7.26179 11.5V9.11362H6.26179V11.5H7.26179ZM6.20898 14.0029C6.8759 13.3419 7.2543 12.4434 7.26177 11.504L6.2618 11.496C6.25643 12.1718 5.98421 12.8177 5.50508 13.2926L6.20898 14.0029ZM4.74035 15.5225L6.21654 13.9952L5.49751 13.3002L4.02132 14.8275L4.74035 15.5225ZM4.88084 17.2273V15.175H3.88084V17.2273H4.88084Z" fill="white"/>
<path d="M3.9047 9.11366C3.90736 6.61983 5.04748 4.26408 6.99994 2.7182C7.42073 2.40189 7.50601 1.80358 7.19041 1.38184C6.86049 0.975453 6.26542 0.911551 5.85708 1.23866C3.4094 3.11137 1.98116 6.02738 1.99994 9.11366C1.99994 9.64084 2.42633 10.0682 2.95232 10.0682C3.47831 10.0682 3.9047 9.64084 3.9047 9.11366Z" fill="black" stroke="white"/>
<path d="M18.143 1.1909C17.7222 0.874596 17.1252 0.960069 16.8096 1.38181C16.6581 1.58434 16.593 1.83892 16.6287 2.08953C16.6644 2.34015 16.798 2.56628 17.0001 2.71818C18.964 4.25484 20.107 6.61653 20.0953 9.11363C20.0953 9.64081 20.5217 10.0682 21.0477 10.0682C21.5737 10.0682 22.0001 9.64081 22.0001 9.11363C22.0116 6.01568 20.5864 3.0882 18.143 1.1909Z" fill="black" stroke="white"/>
</svg>
