<?xml version="1.0" encoding="UTF-8"?>
<svg width="12px" height="12px" viewBox="0 0 12 12" version="1.1" xmlns="http://www.w3.org/2000/svg" xmlns:xlink="http://www.w3.org/1999/xlink">
    <!-- Generator: Sketch 55.2 (78181) - https://sketchapp.com -->
    <title>Close</title>
    <desc>Created with Sketch.</desc>
    <g id="Account-Access" stroke="none" stroke-width="1" fill="none" fill-rule="evenodd">
        <g id="Disabled_Fb_02" transform="translate(-270.000000, -414.000000)" fill="#464E56">
            <g id="Group-2" transform="translate(24.000000, 400.000000)">
                <path d="M252.000001,18.7898224 L247.458858,14.2486795 C247.130572,13.9203938 246.586286,13.9178224 246.252,14.2521081 C245.916,14.5889652 245.916858,15.1263938 246.249429,15.4589652 L250.789715,20.0001082 L246.249429,24.5403939 C245.920286,24.8695368 245.918572,25.4129654 246.252,25.7472511 C246.588858,26.0841082 247.127143,26.0832511 247.458858,25.7506797 L252.000001,21.2095367 L256.541143,25.7506797 C256.869429,26.0798225 257.413715,26.0815368 257.748001,25.7472511 C258.084001,25.4112511 258.083143,24.8729654 257.750572,24.5403939 L253.210286,20.0001082 L257.750572,15.4589652 C258.079715,15.1298224 258.081429,14.5863938 257.748001,14.2521081 C257.411143,13.9161081 256.872858,13.9169652 256.541143,14.2486795 L252.000001,18.7898224 Z" id="Close"></path>
            </g>
        </g>
    </g>
</svg>